<svg version="1.2" xmlns="http://www.w3.org/2000/svg" viewBox="0 0 860 860" width="860" height="860">
	<title>23254597_christmas_2012_new_2857-ai</title>
	<defs>
		<radialGradient id="g1" cx="580.3" cy="594.7" r="246.6" gradientUnits="userSpaceOnUse">
			<stop offset="0" stop-color="#000000"/>
			<stop offset=".973" stop-color="#ffffff"/>
		</radialGradient>
	</defs>
	<style>
		.s0 { fill: #f5f5f5 } 
		.s1 { fill: #000000 } 
		.s2 { opacity: .6;mix-blend-mode: multiply;fill: url(#g1) } 
		.s3 { fill: #a36d3d } 
	</style>
	<g id="_Artboards_">
	</g>
	<g id="Layer 1 copy 2">
		<path id="&lt;Path&gt;" class="s0" d="m1050.5 1046.5h-1337.6v-1098h1337.6z"/>
		<path id="Divina" class="s1" aria-label="Cuina"  d="m142.8 162.5q-11.8 0-22-3.8-10.2-3.9-17.9-11-7.6-7.3-11.8-17.1-4.2-10.1-4.2-22.1 0-11.4 4.5-21.1 4.5-9.8 12.3-17 7.8-7.3 18-11.2 10.2-4.1 21.7-4.1 9 0 17.4 2.6 8.6 2.4 15.3 6.4 6.9 4.1 11.1 8.9l-10.2 12.5q-5-4.5-10.3-7.6-5.4-3.3-11.4-4.9-6-1.8-12.8-1.8-7.6 0-14.7 2.7-7 2.6-12.6 7.6-5.4 4.8-8.7 11.7-3.1 6.9-3.1 15.3 0 9 3.1 16.1 3.3 7 9 12 5.9 4.7 13.2 7.3 7.5 2.5 15.9 2.5 7.4 0 13.4-1.7 6-2 10.9-5 5-3.1 9-6.4l8 13.3q-3.9 3.7-10.7 7.5-6.6 3.6-15 6-8.2 2.4-17.4 2.4zm110.7 0q-9.6 0-16.8-4.3-7-4.5-11.1-12.8-3.9-8.2-3.9-19.6v-43.5h15.5v38.5q0 8.7 2.3 14.9 2.6 6 7.5 9.1 5.2 3.1 12.8 3.1 5.2 0 9.9-1.6 4.7-1.8 8.1-5 3.6-3.1 5.6-7.6 2.1-4.5 2.1-9.9v-41.5h15.4v78.7h-15.4v-16.5l2.7-1.8q-2 5-6.8 9.6-4.8 4.5-12 7.4-7 2.8-15.9 2.8zm108.7-1.5h-15.4v-78.8h15.4zm-7.9-97q-4.9 0-7.7-2.5-2.7-2.6-2.7-7.3 0-4.3 2.7-7 2.9-2.7 7.7-2.7 4.9 0 7.6 2.5 2.7 2.6 2.7 7.3 0 4.3-2.8 7-2.7 2.7-7.5 2.7zm55 97v-78.7h15.5v19.5l-4.4 1.1q2.6-5.6 7.5-10.6 5-5 11.9-8.3 6.9-3.3 15-3.3 10.9 0 18.1 4.1 7.4 4.1 11 11.6 3.7 7.5 3.7 17.6v47h-15.4v-45.3q0-6.6-2.9-11.2-2.7-4.8-7.6-7.2-4.8-2.6-11.3-2.4-5.5 0-10.3 1.9-4.7 2-8.1 5.2-3.5 3.1-5.4 7-1.8 3.7-1.8 7.6v44.4h-7.7q-3 0-4.9 0-2 0-2.9 0zm155.6 1.5q-12.2 0-21.6-5.2-9.5-5.4-14.8-14.7-5.3-9.3-5.3-21 0-12 5.5-21.1 5.6-9.3 15.2-14.6 9.7-5.2 22.2-5.2 7.5 0 13.9 1.9 6.5 1.9 11.3 5.2 4.8 3.2 7.6 7.2 2.9 4 3 8l-4-0.3v-20.4h15.6v78.8l-15.6-0.1v-20.4l3.3 0.2q-0.3 3.7-3.5 7.7-3 3.7-8.1 7-4.9 3.1-11.4 5.1-6.3 1.9-13.3 1.9zm3.7-14.2q8.9 0 15.6-3.4 6.8-3.7 10.5-9.7 3.8-6.1 3.8-13.6 0-7.6-3.8-13.6-3.7-6-10.5-9.5-6.7-3.5-15.6-3.5-8.7 0-15.4 3.5-6.6 3.5-10.5 9.5-3.7 6-3.7 13.6 0 7.5 3.7 13.6 3.9 6 10.5 9.7 6.7 3.4 15.4 3.4z"/>
		<path id="Divina" class="s1" aria-label="Divina"  d="m136 793h-47.9v-105h47.9q13 0 23.1 4 10.2 4 17.2 11.1 7.1 7.3 10.7 16.9 3.6 9.4 3.6 20.5 0 11.3-3.6 20.9-3.6 9.6-10.7 16.6-6.9 7-17.1 11.1-10.2 3.9-23.2 3.9zm-31.7-90.8v76.8l-0.4-1.6h31.3q9.8 0 17-2.7 7.3-2.7 12-7.7 4.8-4.9 7-11.6 2.4-6.8 2.4-14.9 0-8-2.4-14.5-2.2-6.8-7-11.7-4.8-5.2-12-7.8-7.2-2.9-17-2.9h-31.8zm140 90.8h-15.4v-78.8h15.4zm-8-97q-4.9 0-7.6-2.6-2.7-2.5-2.7-7.2 0-4.3 2.7-7 2.8-2.7 7.6-2.7 5 0 7.7 2.5 2.7 2.5 2.7 7.2 0 4.3-2.9 7.1-2.7 2.7-7.5 2.7zm92.9 97h-12.8l-39.7-78.7h17.6l30.7 63.2-3.7 1.4 32.3-64.6h16.7zm89.5 0h-15.4v-78.8h15.4zm-7.9-97q-5 0-7.7-2.6-2.7-2.5-2.7-7.2 0-4.3 2.7-7.1 2.9-2.6 7.7-2.6 4.9 0 7.6 2.5 2.7 2.5 2.7 7.2 0 4.3-2.8 7.1-2.7 2.7-7.5 2.7zm55 97v-78.7h15.5v19.5l-4.3 1q2.5-5.5 7.5-10.5 4.9-5.1 11.8-8.4 6.9-3.3 15-3.3 10.9 0 18.2 4.2 7.3 4.1 10.9 11.6 3.8 7.5 3.8 17.5v47.1h-15.5v-45.3q0-6.6-2.9-11.2-2.6-4.9-7.6-7.2-4.8-2.6-11.2-2.4-5.6 0-10.4 1.9-4.6 2-8.1 5.1-3.5 3.1-5.4 7.1-1.8 3.7-1.8 7.6v44.4h-7.6q-3 0-5 0-2 0-2.9 0zm155.6 1.5q-12.2 0-21.6-5.2-9.4-5.4-14.8-14.8-5.3-9.2-5.3-21 0-12 5.5-21.1 5.6-9.3 15.2-14.5 9.7-5.3 22.2-5.3 7.5 0 14 1.9 6.4 2 11.2 5.3 4.8 3.2 7.7 7.2 2.8 3.9 3 8l-4.1-0.4v-20.3h15.6v78.7h-15.6v-20.4l3.3 0.2q-0.3 3.7-3.5 7.6-3 3.7-8.1 7.1-4.9 3.1-11.4 5-6.2 2-13.3 2zm3.7-14.2q8.9 0 15.6-3.5 6.8-3.6 10.5-9.6 3.8-6.2 3.8-13.7 0-7.6-3.8-13.6-3.7-6-10.5-9.4-6.7-3.5-15.6-3.5-8.6 0-15.4 3.5-6.6 3.4-10.5 9.4-3.7 6-3.7 13.6 0 7.5 3.7 13.7 3.9 6 10.5 9.6 6.8 3.5 15.4 3.5z"/>
		<path id="&lt;Path&gt;" class="s2" d="m827 594.8c0 18-110.4 32.7-246.6 32.7-136.3 0-246.7-14.7-246.7-32.7 0-18.2 110.4-32.8 246.7-32.8 136.2 0 246.6 14.6 246.6 32.8z"/>
		<g id="&lt;Group&gt;">
			<path id="&lt;Compound Path&gt;" class="s3" d="m545.2 586.2c122.6 43.4 136.7-128.2 81.4-190.7 9.6-27.3-1.2-68.2-30-103.5-37.3-45-90.1-62.9-117.8-40.1-28.1 23.2-20.4 78.4 16.5 123.3 27.7 33.6 64 52 92.3 49.9 11.2 6.2 18.5 12.2 33.4 29.5 88.8 117-48.9 131-285.8-30.7-274.9-188.2-318.8-63.1-276.7 30.8 25.8 25.3 5.5 72.6 31.3 96.1 30 27.8 72.4 61.7 114.4 57.6-35.2-21.1-64.8-47.5-96.7-77.1q-1.9-1.4-2.6-3.7c-0.8-1.6-1.6-3.5-1.7-5.3l-0.1-1.1c-0.5-1.6-0.3-3 0-4.7 0-1.8 0.6-3.5 1.6-4.8l28.2-53.5v-0.4c0.2-1 1.1-2 1.6-2.6 0.8-0.6 1.9-1.1 2.8-1.7 1.1-0.2 2.5 0 3.8 0.6 1.4 0.3 2.7 1.6 4.6 3l-0.1 0.3 119.3 108.4c1.6 1.3 3.6 2.4 5.4 2.7 0.7-34.6-74-97.9-105.4-126.3l-20.1-18.2c-23.6-19.2-44.1 20.8-70.3-1.7-55.6-43.8 17.5-78.5 141.1-38.8 153.9 49 224.8 165.5 329.6 202.7zm-411.1-79.7c-2.5-2.2-5.9-3.2-8.9-3-3.3 0.2-6.4 1.9-9 4.3-2.3 2.5-3.5 5.9-3.4 9.2-0.1 2.9 1.1 6.3 3.7 8.6 146.4 108.2 149.3 110.2 17.6-19.1zm17-31.9c-2.5-2.6-5.6-3.5-8.9-3.3-3.3 0.2-6.4 1.5-8.7 4.3-2.5 2.5-3.5 5.9-3.7 9.2 0.2 3.3 1.5 6.4 4 8.6 168.5 140.5 151.1 119.5 17.3-18.8z"/>
		</g>
	</g>
</svg>